<svg xmlns="http://www.w3.org/2000/svg" width="314.97" height="461.37" viewBox="0 0 314.97 461.37">
  <g>
    <path d="M9.16,375.66a1.7,1.7,0,1,1-1.7,1.7A1.7,1.7,0,0,1,9.16,375.66Z" style="fill: #73fafc"/>
    <path d="M247.53,70.13a1.7,1.7,0,1,1-1.7,1.7A1.7,1.7,0,0,1,247.53,70.13Z" style="fill: #73fafc"/>
    <path d="M7.9,361.5a.44.44,0,0,1,.44.44.44.44,0,0,1-.88,0A.44.44,0,0,1,7.9,361.5Z" style="fill: #73fafc"/>
    <path d="M37.48,324.74a.39.39,0,0,0,0-.77.39.39,0,1,0,0,.77Z" style="fill: #73fafc"/>
    <circle cx="48.4" cy="368.86" r="0.33" style="fill: #73fafc"/>
    <circle cx="13.06" cy="250.33" r="0.82" style="fill: #73fafc"/>
    <path d="M66.73,314.7h0Z" style="fill: #73fafc"/>
    <path d="M15.57,303.75a.54.54,0,1,1,0,1.07.54.54,0,0,1,0-1.07Z" style="fill: #73fafc"/>
    <circle cx="51.99" cy="271.16" r="0.74" style="fill: #73fafc"/>
    <path d="M43.68,248v0Z" style="fill: #73fafc"/>
    <path d="M38.21,233.84a.35.35,0,0,1,0,.69.35.35,0,1,1,0-.69Z" style="fill: #73fafc"/>
    <path d="M27.75,271.16a1,1,0,1,1-1,1A1,1,0,0,1,27.75,271.16Z" style="fill: #73fafc"/>
    <path d="M27.24,255.39a.52.52,0,1,1-.52.52A.51.51,0,0,1,27.24,255.39Z" style="fill: #73fafc"/>
    <path d="M25.37,238.89a.78.78,0,1,1-.79.78A.78.78,0,0,1,25.37,238.89Z" style="fill: #73fafc"/>
    <path d="M37.65,296.14a.56.56,0,1,1-.56.55A.56.56,0,0,1,37.65,296.14Z" style="fill: #73fafc"/>
    <path d="M31.7,289.26a.37.37,0,0,1,.37.37.36.36,0,0,1-.37.37.37.37,0,0,1-.37-.37A.38.38,0,0,1,31.7,289.26Z" style="fill: #73fafc"/>
    <circle cx="20.55" cy="203.33" r="1.07" style="fill: #73fafc"/>
    <path d="M17.87,182.26a.38.38,0,0,1,.38.37.38.38,0,0,1-.75,0A.38.38,0,0,1,17.87,182.26Z" style="fill: #73fafc"/>
    <circle cx="17.87" cy="164.85" r="0.37" style="fill: #73fafc"/>
    <circle cx="40.14" cy="161.35" r="0.74" style="fill: #73fafc"/>
    <path d="M51.21,169.83h0Z" style="fill: #73fafc"/>
    <path d="M6.37,220.48a1.1,1.1,0,1,1-1.1,1.1A1.09,1.09,0,0,1,6.37,220.48Z" style="fill: #73fafc"/>
    <path d="M50.82,205.27a.38.38,0,0,1,.39.39.39.39,0,1,1-.78,0A.38.38,0,0,1,50.82,205.27Z" style="fill: #73fafc"/>
    <circle cx="62.94" cy="193.54" r="0.82" style="fill: #73fafc"/>
    <circle cx="80.47" cy="250.74" r="0.41" style="fill: #73fafc"/>
    <circle cx="74.55" cy="293.54" r="0.74" style="fill: #73fafc"/>
    <circle cx="173.98" cy="12.37" r="0.74" style="fill: #73fafc"/>
    <path d="M80.76,198.06a.7.7,0,1,1-.7.7A.7.7,0,0,1,80.76,198.06Z" style="fill: #73fafc"/>
    <circle cx="70.84" cy="140.2" r="1.32" style="fill: #73fafc"/>
    <circle cx="69.89" cy="128.31" r="0.37" style="fill: #73fafc"/>
    <circle cx="26.12" cy="121.27" r="0.66" style="fill: #73fafc"/>
    <circle cx="14.43" cy="108.92" r="0.82" style="fill: #73fafc"/>
    <circle cx="14.72" cy="96.84" r="0.29" style="fill: #73fafc"/>
    <circle cx="20.93" cy="89.61" r="0.38" style="fill: #73fafc"/>
    <circle cx="10.15" cy="139.87" r="1.15" style="fill: #73fafc"/>
    <circle cx="140.53" cy="52.95" r="1.15" style="fill: #73fafc"/>
    <path d="M.36,80.61A.36.36,0,1,1,0,81,.36.36,0,0,1,.36,80.61Z" style="fill: #73fafc"/>
    <path d="M42,93.17a1.1,1.1,0,1,1,0,2.2,1.1,1.1,0,1,1,0-2.2Z" style="fill: #73fafc"/>
    <circle cx="40.51" cy="79.63" r="0.37" style="fill: #73fafc"/>
    <circle cx="57.23" cy="81.71" r="0.16" style="fill: #73fafc"/>
    <path d="M55.42,136.74a.55.55,0,1,0-.55-.54A.55.55,0,0,0,55.42,136.74Z" style="fill: #73fafc"/>
    <circle cx="72.45" cy="116.81" r="0.29" style="fill: #73fafc"/>
    <path d="M92.57,85.6a.72.72,0,1,1-.71.72A.71.71,0,0,1,92.57,85.6Z" style="fill: #73fafc"/>
    <path d="M97.45,79.68a1.1,1.1,0,1,1-1.09,1.09A1.09,1.09,0,0,1,97.45,79.68Z" style="fill: #73fafc"/>
    <path d="M132.35,440.52a1.1,1.1,0,1,1-1.09,1.1A1.1,1.1,0,0,1,132.35,440.52Z" style="fill: #73fafc"/>
    <path d="M107.55,91.2a1.1,1.1,0,1,0,0-2.2,1.1,1.1,0,1,0,0,2.2Z" style="fill: #73fafc"/>
    <path d="M75.34,91.2a1.54,1.54,0,1,1-1.54,1.54A1.54,1.54,0,0,1,75.34,91.2Z" style="fill: #73fafc"/>
    <path d="M233.38,400a1.54,1.54,0,1,1-1.54,1.53A1.53,1.53,0,0,1,233.38,400Z" style="fill: #73fafc"/>
    <path d="M85.22,412.54a1.54,1.54,0,0,1,0,3.07,1.54,1.54,0,1,1,0-3.07Z" style="fill: #73fafc"/>
    <circle cx="105.05" cy="130.68" r="0.58" style="fill: #73fafc"/>
    <path d="M97.81,117.37a.36.36,0,1,1-.36.36A.36.36,0,0,1,97.81,117.37Z" style="fill: #73fafc"/>
    <circle cx="93.78" cy="155.68" r="0.49" style="fill: #73fafc"/>
    <circle cx="100.77" cy="156.58" r="0.25" style="fill: #73fafc"/>
    <circle cx="129.06" cy="181.41" r="0.66" style="fill: #73fafc"/>
    <path d="M104.18,224.6a.46.46,0,0,1,.46.46.47.47,0,1,1-.93,0A.46.46,0,0,1,104.18,224.6Z" style="fill: #73fafc"/>
    <path d="M100.36,210.38a.72.72,0,1,1-.71.72A.72.72,0,0,1,100.36,210.38Z" style="fill: #73fafc"/>
    <circle cx="98.91" cy="173.76" r="0.74" style="fill: #73fafc"/>
    <circle cx="122.07" cy="155.43" r="0.25" style="fill: #73fafc"/>
    <path d="M138.8,166.32a.63.63,0,1,0-.63-.63A.63.63,0,0,0,138.8,166.32Z" style="fill: #73fafc"/>
    <path d="M132.13,255.6a.55.55,0,1,0-.54-.55A.55.55,0,0,0,132.13,255.6Z" style="fill: #73fafc"/>
    <circle cx="117.54" cy="254.94" r="0.66" style="fill: #73fafc"/>
    <circle cx="123.56" cy="224.06" r="0.54" style="fill: #73fafc"/>
    <path d="M101.57,259.11h0Z" style="fill: #73fafc"/>
    <path d="M101,302.57a.61.61,0,1,1-.61.6A.6.6,0,0,1,101,302.57Z" style="fill: #73fafc"/>
    <path d="M93.53,295.71a.47.47,0,0,1,.47.47.47.47,0,0,1-.94,0A.47.47,0,0,1,93.53,295.71Z" style="fill: #73fafc"/>
    <path d="M125.22,315.19h0Z" style="fill: #73fafc"/>
    <path d="M131.64,303.23a1,1,0,1,1-1,1A1,1,0,0,1,131.64,303.23Z" style="fill: #73fafc"/>
    <circle cx="141.19" cy="296.81" r="0.16" style="fill: #73fafc"/>
    <path d="M138.77,340.32a.93.93,0,1,0-.93-.93A.93.93,0,0,0,138.77,340.32Z" style="fill: #73fafc"/>
    <path d="M116.17,361.17a.71.71,0,1,0,0-1.42.71.71,0,1,0,0,1.42Z" style="fill: #73fafc"/>
    <path d="M98.88,334.73v0Z" style="fill: #73fafc"/>
    <path d="M89.94,357.44a.72.72,0,1,1-.72.72A.71.71,0,0,1,89.94,357.44Z" style="fill: #73fafc"/>
    <circle cx="68.21" cy="51.31" r="0.71" style="fill: #73fafc"/>
    <path d="M80.75,344.66a.52.52,0,1,1-.53.52A.52.52,0,0,1,80.75,344.66Z" style="fill: #73fafc"/>
    <path d="M78.14,333.63v0Z" style="fill: #73fafc"/>
    <path d="M69.91,383.12a1.43,1.43,0,1,0-1.43-1.42A1.42,1.42,0,0,0,69.91,383.12Z" style="fill: #73fafc"/>
    <path d="M151.72,379.83h0Z" style="fill: #73fafc"/>
    <circle cx="156.83" cy="356.24" r="0.99" style="fill: #73fafc"/>
    <path d="M162.7,340.76a.72.72,0,0,1,0,1.43.72.72,0,0,1,0-1.43Z" style="fill: #73fafc"/>
    <circle cx="166.81" cy="327.04" r="1.76" style="fill: #73fafc"/>
    <circle cx="213.57" cy="1.76" r="1.76" style="fill: #73fafc"/>
    <circle cx="182.78" cy="350.04" r="1.15" style="fill: #73fafc"/>
    <path d="M192.3,313.6a.36.36,0,1,1,0,.71.36.36,0,0,1,0-.71Z" style="fill: #73fafc"/>
    <path d="M174,289.84v0Z" style="fill: #73fafc"/>
    <circle cx="168.41" cy="269.48" r="0.82" style="fill: #73fafc"/>
    <circle cx="182.78" cy="269.37" r="1.15" style="fill: #73fafc"/>
    <path d="M203.17,280.13a.36.36,0,1,0-.36-.36A.36.36,0,0,0,203.17,280.13Z" style="fill: #73fafc"/>
    <circle cx="222.4" cy="321.72" r="1.81" style="fill: #73fafc"/>
    <circle cx="212.91" cy="374.23" r="0.66" style="fill: #73fafc"/>
    <circle cx="186.57" cy="89.33" r="0.66" style="fill: #73fafc"/>
    <path d="M227,367.54a.88.88,0,1,1-.88.88A.87.87,0,0,1,227,367.54Z" style="fill: #73fafc"/>
    <path d="M239.41,357.22a1.27,1.27,0,1,1-1.26,1.27A1.26,1.26,0,0,1,239.41,357.22Z" style="fill: #73fafc"/>
    <path d="M261.53,312.45a.88.88,0,1,1-.88.88A.87.87,0,0,1,261.53,312.45Z" style="fill: #73fafc"/>
    <path d="M265.42,294.23a1.7,1.7,0,1,1-1.7,1.7A1.7,1.7,0,0,1,265.42,294.23Z" style="fill: #73fafc"/>
    <path d="M232.88,278.43a.22.22,0,0,0-.22.22.22.22,0,0,0,.44,0A.22.22,0,0,0,232.88,278.43Z" style="fill: #73fafc"/>
    <path d="M231.87,256a.53.53,0,1,1-.52.52A.52.52,0,0,1,231.87,256Z" style="fill: #73fafc"/>
    <circle cx="246.44" cy="252.36" r="1.15" style="fill: #73fafc"/>
    <path d="M266.27,261.36a.85.85,0,1,0-.85-.85A.85.85,0,0,0,266.27,261.36Z" style="fill: #73fafc"/>
    <path d="M295.05,333.3a1.7,1.7,0,1,1-1.7,1.7A1.7,1.7,0,0,1,295.05,333.3Z" style="fill: #73fafc"/>
    <path d="M266.7,367.62a1.28,1.28,0,1,1-1.28,1.28A1.27,1.27,0,0,1,266.7,367.62Z" style="fill: #73fafc"/>
    <path d="M278,352.83a.71.71,0,1,0-.71-.71A.71.71,0,0,0,278,352.83Z" style="fill: #73fafc"/>
    <path d="M303.17,375.77a1,1,0,1,0-1-1A1,1,0,0,0,303.17,375.77Z" style="fill: #73fafc"/>
    <circle cx="301.64" cy="301.64" r="0.49" style="fill: #73fafc"/>
    <path d="M265.7,211.59a.77.77,0,0,1,0,1.54.77.77,0,1,1,0-1.54Z" style="fill: #73fafc"/>
    <path d="M233.07,195.9a1.21,1.21,0,1,1-1.2,1.2A1.21,1.21,0,0,1,233.07,195.9Z" style="fill: #73fafc"/>
    <path d="M280.32,178.72a.47.47,0,0,1,.47.47.47.47,0,0,1-.94,0A.47.47,0,0,1,280.32,178.72Z" style="fill: #73fafc"/>
    <path d="M290.22,163a1,1,0,1,1-1,1.05A1,1,0,0,1,290.22,163Z" style="fill: #73fafc"/>
    <circle cx="309.81" cy="221.58" r="1.98" style="fill: #73fafc"/>
    <path d="M245.39,139.82a.77.77,0,1,1,0,1.53.77.77,0,1,1,0-1.53Z" style="fill: #73fafc"/>
    <circle cx="237.38" cy="111.06" r="1.07" style="fill: #73fafc"/>
    <circle cx="267.62" cy="149.97" r="1.15" style="fill: #73fafc"/>
    <circle cx="275.3" cy="105.85" r="0.82" style="fill: #73fafc"/>
    <path d="M300.62,82.69a.47.47,0,0,1,0,.94.47.47,0,0,1,0-.94Z" style="fill: #73fafc"/>
    <path d="M314.2,114.68a.77.77,0,1,0-.76-.76A.76.76,0,0,0,314.2,114.68Z" style="fill: #73fafc"/>
    <path d="M178.67,136.25a1.37,1.37,0,1,1-1.37,1.37A1.37,1.37,0,0,1,178.67,136.25Z" style="fill: #73fafc"/>
    <path d="M130.6,387.79a1.37,1.37,0,1,1-1.37,1.37A1.37,1.37,0,0,1,130.6,387.79Z" style="fill: #73fafc"/>
    <circle cx="146.57" cy="103.55" r="0.49" style="fill: #73fafc"/>
    <path d="M140.08,130.52a.64.64,0,0,1,.64.64.65.65,0,1,1-.64-.64Z" style="fill: #73fafc"/>
    <path d="M198.68,64.67a.65.65,0,1,1-.64.64A.65.65,0,0,1,198.68,64.67Z" style="fill: #73fafc"/>
    <path d="M205.27,447.9a.65.65,0,1,1-.65.65A.65.65,0,0,1,205.27,447.9Z" style="fill: #73fafc"/>
    <circle cx="164.24" cy="97.4" r="0.16" style="fill: #73fafc"/>
    <path d="M211.26,110.42a.89.89,0,1,0-.89-.89A.89.89,0,0,0,211.26,110.42Z" style="fill: #73fafc"/>
    <path d="M38.08,400.15a.89.89,0,1,0-.89-.89A.89.89,0,0,0,38.08,400.15Z" style="fill: #73fafc"/>
    <path d="M179.11,209.29a1.43,1.43,0,1,1-1.43,1.42A1.42,1.42,0,0,1,179.11,209.29Z" style="fill: #73fafc"/>
    <path d="M144.21,205.12a1.1,1.1,0,1,1-1.1,1.09A1.09,1.09,0,0,1,144.21,205.12Z" style="fill: #73fafc"/>
    <path d="M168.63,182.07a.22.22,0,1,1-.22.22A.21.21,0,0,1,168.63,182.07Z" style="fill: #73fafc"/>
    <circle cx="176.36" cy="54.1" r="1.65" style="fill: #73fafc"/>
    <circle cx="113.15" cy="36.33" r="0.33" style="fill: #73fafc"/>
    <circle cx="94.05" cy="19.21" r="0.33" style="fill: #73fafc"/>
    <circle cx="29.52" cy="37.64" r="0.99" style="fill: #73fafc"/>
    <circle cx="19.64" cy="9.99" r="1.65" style="fill: #73fafc"/>
    <circle cx="237.93" cy="41.92" r="0.66" style="fill: #73fafc"/>
    <circle cx="232.99" cy="17.89" r="0.99" style="fill: #73fafc"/>
    <circle cx="278.76" cy="26.78" r="1.32" style="fill: #73fafc"/>
    <circle cx="168.13" cy="402.11" r="1.32" style="fill: #73fafc"/>
    <circle cx="181.63" cy="386.64" r="0.99" style="fill: #73fafc"/>
    <circle cx="175.05" cy="436.68" r="0.99" style="fill: #73fafc"/>
    <circle cx="258.67" cy="424.83" r="2.3" style="fill: #73fafc"/>
    <circle cx="243.86" cy="460.71" r="0.66" style="fill: #73fafc"/>
    <circle cx="56.85" cy="442.28" r="0.66" style="fill: #73fafc"/>
    <circle cx="13.39" cy="439.64" r="1.98" style="fill: #73fafc"/>
    <circle cx="299.83" cy="439.64" r="0.66" style="fill: #73fafc"/>
    <circle cx="287.32" cy="413.3" r="0.66" style="fill: #73fafc"/>
  </g>
</svg>
