<svg xmlns="http://www.w3.org/2000/svg" xmlns:xlink="http://www.w3.org/1999/xlink" viewBox="0 0 317.5 173.29">
  <defs>
    <linearGradient id="a" x1="3" y1="67.09" x2="131.18" y2="67.09" gradientUnits="userSpaceOnUse">
      <stop offset="0" stop-color="#515380"/>
      <stop offset="1" stop-color="#515380"/>
    </linearGradient>
    <linearGradient id="b" x1="256.12" y1="137.63" x2="307.87" y2="137.63" gradientUnits="userSpaceOnUse">
      <stop offset="0.34" stop-color="#e44c25"/>
      <stop offset="1" stop-color="#b02b0c"/>
    </linearGradient>
    <linearGradient id="c" x1="275.18" y1="101.95" x2="317.49" y2="101.95" xlink:href="#b"/>
    <linearGradient id="d" x1="124.04" y1="226.61" x2="183.54" y2="226.61" gradientTransform="translate(-49.02 -69.17) rotate(-19.16)" xlink:href="#b"/>
  </defs>
  <title>cat_1</title>
  <g>
    <g>
      <circle cx="67.09" cy="67.09" r="64.08" style="fill: url(#a)"/>
      <path d="M164.28,28.91c4.36-7.79-1.89-20.23-10.82-17.93-5.13,1.31-9.81,10-10.11,10.79l-2.51,1.79c-4.77,4.46-10.11,8-15.07,12.17.12.13.24.24.36.35-.12-.11-.24-.22-.36-.35L110.19,47.4c3.45,1.33,6.89,2.65,10.33,4,5.94,2.29,10.86,6.35,16.17,9.73.83.52,1.6,1.11,2.4,1.68C145.21,54.9,159.13,38.12,164.28,28.91Z" style="fill: #b02b0c"/>
      <path d="M274.68,28.3c5.83-6.77-2.61-23-11.82-22.48-5.29.27-6.8,10.58-7.27,11.3l-2.8,1.25c-5.57,3.42-11.52,5.83-17.21,8.92.1.14.19.28.29.41-.1-.13-.19-.27-.29-.41L218,35.61l9.32,6c5.36,3.43,9.37,8.4,13.9,12.76.71.68,1.35,1.42,2,2.13C250.8,50,267.79,36.29,274.68,28.3Z" style="fill: #b02b0c"/>
      <g>
        <path d="M268.34,172.51c38.58,8.91,54.83-61.39,47.41-86.64-9.19-31.27-48.4-48.77-78.38-39.5C242.8,72.46,261.2,56,276.76,72.21,288.15,84.1,287,97.32,275,108.87c-7.49,7.18-18.42,9.55-24.83,19.55A29.05,29.05,0,0,0,268.34,172.51Z" style="fill: #b02b0c"/>
        <path d="M298.32,129.22c-3.76-3.07-7.57-5.32-12.43-4.51-8,1.34-14.43-2.54-19.8-9.49a80.88,80.88,0,0,0-9.73,6.37,50.9,50.9,0,0,0-.12,7.4c1.64,14.19,8.13,21,16.74,24.12a27.64,27.64,0,0,0,13.3,1.19c5-.72,9.14,1.86,12.82,5.73a69.4,69.4,0,0,0,8.77-14.71C305.58,138.86,302.86,132.93,298.32,129.22Z" style="fill: url(#b)"/>
        <path d="M284.69,89.43c0,6.58-3.23,13.13-9.51,19.23a19.61,19.61,0,0,0,13.62,2.17c10.22-2.07,19.06.16,27.57,4.57A89.2,89.2,0,0,0,317,91.83C306.54,88.09,295.72,87.8,284.69,89.43Z" style="fill: url(#c)"/>
      </g>
      <g>
        <path d="M263.45,110.21h-.06Z" style="fill: #e44c25"/>
        <path d="M290.4,32.94c-4.83,1.28-4.67,11.1-7.27,14.36-3.6,4.52-11.24,9.43-15.84,12.92C255.65,28.56,223.23,18.33,192.78,28c-14.12,4.5-27.17,12.34-41.14,17.32-10.67,3.81-22.16,4.29-32.41,9.07-16.89,7.89-38.33,32.39-36.65,52.47,2,24.46,41.1,35.68,61.58,39.49a132.15,132.15,0,0,0,96.6-19c18.94-12.37,31.1-27.86,44.48-45.43,5.43-7.14,19.92-20.31,21.36-29.42C307.94,44,301.34,30.05,290.4,32.94Z" style="fill: #e44c25"/>
      </g>
      <path d="M194.68,81.57c3.28-8.31-4.58-19.8-13.12-16.32-4.91,2-8.38,11.22-8.58,12l-2.24,2.11c-4.13,5.06-9,9.29-13.3,14.08a3.79,3.79,0,0,0,.4.3,3.79,3.79,0,0,1-.4-.3l-13.88,13.65,10.77,2.57c6.2,1.48,11.61,4.84,17.33,7.47.89.41,1.74.9,2.61,1.35C179.27,109.88,190.81,91.39,194.68,81.57Z" style="fill: url(#d)"/>
      <g>
        <path d="M30.69,75.83A54.65,54.65,0,0,1,19.34,73C20,84.47,28.54,89.45,35.28,94.6Z" style="fill: #c65d13"/>
        <path d="M163.09,55.48c-8.76-9.1-19.71-.08-29-4.71.19-.38,8.05-2.31,8.94-3A233.73,233.73,0,0,1,119.67,42c-8.61-2.44-16.52-12.76-24.29-17.51-9-5.52-18.07-5.65-28.34-4-4.84.77-8.54,2.21-13.44,2.73-4.66.51-8.18-1.8-12-4.05A10.39,10.39,0,0,0,40.13,26c.17,1.8,2.39,6,2.39,6s-3,6-4.13,8.34c-3.28,6.71-7.93,20-9.18,27.34C26.56,83.32,29.7,97.9,41,109.6s47.89,19.57,54.76,22.24c.56.22,14.33,7.39,14.92,7.18,1.79-.62-.2-7.1.25-8,1-2,5.8-3.46,8.34-5.27,5.65-4,11.9-9.27,15.33-15.41s-1.46-11,.39-16.93C138.62,81.94,165.23,57.7,163.09,55.48Z" style="fill: #fefefe"/>
        <path d="M56,74.34c4.6-3.17,11-7.22,13.54-3.39,1.54,2.27-1.5,8-6.1,11.18s-9.49,2-11.33,0C50.82,80.7,51.41,77.52,56,74.34Z" style="fill: #eee"/>
        <path d="M89.24,66.6c2.29-2,4.78-4.08,4.45-7.67-.07-.84.47-.85,1-.84,3.22,0,6.3.55,8.72,3,5.78,8.28-7.25,5.14-9.07,10C92.59,74.93,86.18,71.34,89.24,66.6Z" style="fill: #eee"/>
        <path d="M56.09,64c6.72,2.26,11.15,7.12,9.9,10.85S46.37,87.71,39.65,85.45,33,71.16,35,67.76C38,62.5,49.36,61.74,56.09,64Z" style="fill: #ff870a"/>
        <path d="M69.55,39.69C71.83,43.25,75.07,47.92,78,46c1.73-1.14,1.29-6-1-9.57s-6-4.19-7.89-3.32C67.8,33.75,67.28,36.14,69.55,39.69Z" style="fill: #eee"/>
        <ellipse cx="67.66" cy="39.26" rx="6.09" ry="5.29" style="fill: #313247"/>
        <ellipse cx="55.62" cy="71.7" rx="7.21" ry="6.26" style="fill: #313247"/>
        <path d="M48.26,24.35a16.86,16.86,0,0,1-4.48-1.94c-.51,1.91.08,3.84.95,6.8Z" style="fill: #b02b0c"/>
        <path d="M59.89,57.86c.18,1.55.77,2,2.26,1.69,2.22-.43,5.92-4.72,8.41-3.6,1.4.62,2.89,1.13,4.32,1.66,1,.36,1.34,3.37-.94,3.31-.28.09-.08,1.38.22,1.4a2.82,2.82,0,0,0,3-2.69c.14-2.07-.37-2.62-2.6-3.43a29.21,29.21,0,0,1-3.51-1.35c-2.42-1.18-3.77-6.41-5.46-7.3C62.2,45.73,59.58,55.15,59.89,57.86Z" style="fill: #e44c25"/>
      </g>
      <circle cx="67.09" cy="67.09" r="64.08" style="fill: none;stroke: #515380;stroke-miterlimit: 10;stroke-width: 6px"/>
    </g>
    <path d="M80.53,36.82c-1.28-2.93,1.69-14.11,4.15-15.59Z"/>
    <path d="M90.46,41.64c.12-2.59,8.49-9.26,11.27-8.94Z"/>
    <path d="M85.09,38.66c.24-3.39,8.93-15.49,12.14-16.87Z"/>
    <path d="M59.57,87.57c-3.23,1.52-8.93,13.11-7.94,16.17C54.16,98.59,56.69,93.45,59.57,87.57Z"/>
    <path d="M71.46,90.8c-1.79,2.26.37,14,2.93,15.79Q72.94,98.7,71.46,90.8Z"/>
    <path d="M64.76,89.37c-2.29,3-3.85,19.59-2.16,23.1C63.29,105.12,64,97.76,64.76,89.37Z"/>
  </g>
</svg>
