<svg xmlns="http://www.w3.org/2000/svg" xmlns:xlink="http://www.w3.org/1999/xlink" width="100" height="56" viewBox="0 0 100 56">
  <defs>
    <linearGradient id="a" x1="2.89" y1="21.99" x2="40.17" y2="21.99" gradientUnits="userSpaceOnUse">
      <stop offset="0" stop-color="#515380"/>
      <stop offset="1" stop-color="#515380"/>
    </linearGradient>
    <linearGradient id="b" x1="80.77" y1="44.58" x2="96.98" y2="44.58" gradientUnits="userSpaceOnUse">
      <stop offset="0.34" stop-color="#e44c25"/>
      <stop offset="1" stop-color="#b02b0c"/>
    </linearGradient>
    <linearGradient id="c" x1="86.74" y1="33.15" x2="100" y2="33.15" xlink:href="#b"/>
    <linearGradient id="d" x1="-202.91" y1="14.02" x2="-184.18" y2="14.02" gradientTransform="translate(232.2 -46.05) rotate(-19.16)" xlink:href="#b"/>
  </defs>
  <g>
    <g>
      <ellipse cx="21.53" cy="21.99" rx="18.63" ry="19.04" style="opacity: 0.9;fill: url(#a)"/>
      <path d="M52,9.76C53.35,7.27,51.4,3.28,48.6,4c-1.61.42-3.08,3.2-3.17,3.46l-.79.57c-1.49,1.43-3.17,2.56-4.72,3.9l.11.11L39.92,12,35,15.68,38.28,17a29.94,29.94,0,0,1,5.06,3.12c.26.16.5.35.75.53C46,18.09,50.37,12.71,52,9.76Z" style="fill: #b02b0c"/>
      <path d="M86.58,9.57c1.83-2.17-.81-7.35-3.7-7.2C81.22,2.45,80.75,5.75,80.6,6l-.88.4C78,7.48,76.11,8.25,74.33,9.24l.09.14-.09-.14-5.51,2.67,2.92,1.91a30.63,30.63,0,0,1,4.36,4.09c.22.21.42.45.63.68C79.1,16.5,84.42,12.13,86.58,9.57Z" style="fill: #b02b0c"/>
      <g>
        <path d="M84.6,55.75C96.69,58.6,101.78,36.09,99.45,28,96.57,18,84.29,12.38,74.89,15.35c1.7,8.36,7.47,3.08,12.34,8.28,3.57,3.81,3.22,8-.56,11.74-2.35,2.3-5.77,3.06-7.78,6.26A9.36,9.36,0,0,0,84.6,55.75Z" style="fill: #b02b0c"/>
        <path d="M94,41.89a4.69,4.69,0,0,0-3.89-1.45c-2.51.43-4.53-.81-6.21-3a26.14,26.14,0,0,0-3,2,18.81,18.81,0,0,0,0,2.37c.52,4.55,2.55,6.74,5.25,7.73a8.6,8.6,0,0,0,4.17.38c1.57-.23,2.86.6,4,1.84A21.91,21.91,0,0,0,97,47,11.28,11.28,0,0,0,94,41.89Z" style="fill: url(#b)"/>
        <path d="M89.72,29.15a8.72,8.72,0,0,1-3,6.15A6.05,6.05,0,0,0,91,36a12.36,12.36,0,0,1,8.64,1.46,29.51,29.51,0,0,0,.18-7.55A20,20,0,0,0,89.72,29.15Z" style="fill: url(#c)"/>
      </g>
      <g>
        <path d="M83.06,35.8h0Z" style="fill: #e44c25"/>
        <path d="M91.51,11.05c-1.51.41-1.47,3.56-2.28,4.6-1.13,1.45-3.52,3-5,4.14C80.62,9.65,70.46,6.37,60.92,9.48,56.49,10.92,52.41,13.43,48,15c-3.35,1.22-7,1.37-10.16,2.9-5.29,2.53-12,10.38-11.48,16.81C27,42.57,39.26,46.16,45.68,47.38A40.71,40.71,0,0,0,76,41.29c5.93-4,9.74-8.92,13.93-14.55,1.7-2.29,6.25-6.51,6.7-9.42C97,14.6,94.94,10.13,91.51,11.05Z" style="fill: #e44c25"/>
      </g>
      <path d="M61.52,26.63c1-2.66-1.44-6.34-4.12-5.23-1.54.64-2.62,3.59-2.69,3.86l-.7.67c-1.29,1.63-2.8,3-4.17,4.51l.13.1-.13-.1-4.35,4.38,3.38.82A29.47,29.47,0,0,1,54.3,38c.28.13.54.29.82.43C56.68,35.69,60.3,29.77,61.52,26.63Z" style="fill: url(#d)"/>
      <g>
        <path d="M10.12,24.79a16.45,16.45,0,0,1-3.55-.9c.19,3.66,2.88,5.26,5,6.91Z" style="fill: #c65d13"/>
        <path d="M51.61,18.27c-2.74-2.91-6.17,0-9.09-1.51.06-.12,2.52-.74,2.8-1A71,71,0,0,1,38,14c-2.7-.78-5.18-4.09-7.61-5.61-2.83-1.76-5.67-1.81-8.88-1.28-1.52.24-2.68.71-4.22.87s-2.56-.57-3.76-1.29a3.41,3.41,0,0,0-.46,2.17,9,9,0,0,0,.75,1.92s-.93,1.91-1.29,2.67a42.21,42.21,0,0,0-2.88,8.76c-.83,5,.15,9.69,3.71,13.43s15,6.27,17.16,7.13c.17.07,4.49,2.36,4.67,2.3.56-.2-.06-2.28.08-2.56.33-.64,1.82-1.11,2.61-1.68a16.42,16.42,0,0,0,4.81-4.94c1.09-2-.46-3.52.12-5.42C43.94,26.74,52.29,19,51.61,18.27Z" style="fill: #fefefe"/>
        <path d="M18.06,24.31c1.44-1,3.43-2.31,4.24-1.09.48.73-.47,2.57-1.91,3.59a2.78,2.78,0,0,1-3.55,0C16.43,26.35,16.62,25.33,18.06,24.31Z" style="fill: #eee"/>
        <path d="M28.47,21.83a2.92,2.92,0,0,0,1.4-2.45c0-.27.15-.28.32-.27a3.58,3.58,0,0,1,2.73.95c1.82,2.65-2.27,1.64-2.84,3.21C29.52,24.5,27.51,23.35,28.47,21.83Z" style="fill: #eee"/>
        <path d="M18.08,21c2.11.72,3.5,2.28,3.11,3.47s-6.15,4.12-8.26,3.4-2.08-4.58-1.46-5.67C12.42,20.52,16,20.27,18.08,21Z" style="fill: #ff870a"/>
        <path d="M22.3,13.21c.72,1.14,1.73,2.64,2.65,2,.54-.36.4-1.93-.31-3.06a2.11,2.11,0,0,0-2.47-1.07C21.75,11.31,21.59,12.08,22.3,13.21Z" style="fill: #eee"/>
        <ellipse cx="21.71" cy="13.08" rx="1.91" ry="1.69" style="fill: #313247"/>
        <ellipse cx="17.94" cy="23.47" rx="2.26" ry="2.01" style="fill: #313247"/>
        <path d="M15.63,8.3a5.12,5.12,0,0,1-1.4-.62,4.22,4.22,0,0,0,.29,2.18Z" style="fill: #b02b0c"/>
        <path d="M19.28,19c0,.5.24.63.7.54.7-.13,1.86-1.51,2.64-1.15.44.2.9.36,1.35.53S24.39,20,23.68,20c-.09,0,0,.44.07.45a.89.89,0,0,0,.95-.86c.05-.66-.11-.84-.81-1.1a8.64,8.64,0,0,1-1.1-.43c-.76-.38-1.18-2.05-1.71-2.34C20,15.15,19.18,18.16,19.28,19Z" style="fill: #e44c25"/>
      </g>
      <path d="M21.49,44A21.1,21.1,0,0,1,9.78,40.41a21.83,21.83,0,0,1-9.34-14A22,22,0,0,1,17.21.46,21,21,0,0,1,33.28,3.57a21.83,21.83,0,0,1,9.34,14A22,22,0,0,1,25.86,43.52,21,21,0,0,1,21.49,44Zm.08-41.06a18,18,0,0,0-3.78.4A19.08,19.08,0,0,0,3.28,25.82,19,19,0,0,0,11.38,38a18.16,18.16,0,0,0,13.89,2.69,19.06,19.06,0,0,0,14.51-22.5h0A18.9,18.9,0,0,0,31.68,6,18.13,18.13,0,0,0,21.57,2.92Z" style="fill: #515380;opacity: 0.9"/>
    </g>
    <path d="M25.74,12.3c-.4-.94.53-4.52,1.3-5Z"/>
    <path d="M28.85,13.84c0-.83,2.67-3,3.54-2.87Z"/>
    <path d="M27.17,12.88c.08-1.08,2.8-5,3.8-5.4Z"/>
    <path d="M19.18,28.55c-1,.48-2.8,4.2-2.49,5.18Z"/>
    <path d="M22.9,29.58c-.56.73.11,4.49.92,5.06C23.51,33,23.21,31.27,22.9,29.58Z"/>
    <path d="M20.8,29.12c-.72,1-1.2,6.28-.68,7.4C20.34,34.17,20.55,31.81,20.8,29.12Z"/>
  </g>
</svg>
