<svg xmlns="http://www.w3.org/2000/svg" xmlns:xlink="http://www.w3.org/1999/xlink" width="20" height="20" viewBox="0 0 20 20">
  <defs>
    <linearGradient id="a" x1="0.53" y1="10.09" x2="19.79" y2="10.09" gradientUnits="userSpaceOnUse">
      <stop offset="0" stop-color="#8ab983"/>
      <stop offset="1" stop-color="#50bbb3"/>
    </linearGradient>
  </defs>
  <g>
    <ellipse cx="10.16" cy="10.09" rx="9.63" ry="9.91" style="fill: url(#a)"/>
    <path d="M12.46,18.49a20.05,20.05,0,0,1-5.89-1C2.3,16.16.16,14.85,0,13.47a1.74,1.74,0,0,1,.86-1.54.29.29,0,0,1,.41.13.31.31,0,0,1-.11.42h0s-.62.37-.56.92,1,1.88,6.13,3.47c8.34,2.57,11.13-.6,11.42-1.59a.29.29,0,0,1,.37-.21.31.31,0,0,1,.21.39S17.56,18.49,12.46,18.49Z" style="fill: #2b9356"/>
    <path d="M16.86,17.65h-.08a.35.35,0,0,1-.24-.41C18,11,13.36,2.2,10.58,1S5,2.09,5,2.11a.33.33,0,0,1-.47,0,.34.34,0,0,1,0-.48c.13-.11,3-2.53,6.26-1.18s7.84,10.62,6.36,17A.33.33,0,0,1,16.86,17.65Z" style="fill: #2b9356"/>
    <path d="M10.23,13h-.8C1.54,12.68.3,9.68.25,9.55a.35.35,0,0,1,.19-.44.32.32,0,0,1,.42.19s1.24,2.72,8.59,3,9.91-4.14,9.94-4.18A.31.31,0,0,1,19.83,8a.34.34,0,0,1,.13.46C19.86,8.68,17.48,13,10.23,13Z" style="fill: #2b9356"/>
    <path d="M6.08,13.3A11.37,11.37,0,0,1,.27,11.8a.35.35,0,0,1-.1-.47.33.33,0,0,1,.46-.11,11.9,11.9,0,0,0,11.24,0c6.22-3.07,6.05-6.05,6.05-6.08a.35.35,0,0,1,.3-.37.33.33,0,0,1,.36.3c0,.14.28,3.46-6.42,6.76A13.7,13.7,0,0,1,6.08,13.3Z" style="fill: #2b9356"/>
  </g>
</svg>
